<?xml version="1.0" standalone="no"?>
<!DOCTYPE svg PUBLIC "-//W3C//DTD SVG 20010904//EN"
 "http://www.w3.org/TR/2001/REC-SVG-20010904/DTD/svg10.dtd">
<svg version="1.0" xmlns="http://www.w3.org/2000/svg"
 width="452.000000pt" height="452.000000pt" viewBox="0 0 452.000000 452.000000"
 preserveAspectRatio="xMidYMid meet">
<metadata>
Created by potrace 1.16, written by Peter Selinger 2001-2019
</metadata>
<g transform="translate(0.000000,452.000000) scale(0.100000,-0.100000)"
fill="#000000" stroke="none">
<path d="M2375 4165 c-73 -27 -137 -85 -174 -158 -34 -66 -34 -68 -39 -227
l-5 -160 -36 0 c-53 0 -146 -26 -196 -55 -53 -32 -136 -119 -163 -172 -12 -22
-26 -61 -33 -87 l-11 -46 -222 0 c-255 0 -319 -10 -435 -67 -57 -28 -96 -58
-156 -118 -140 -140 -185 -260 -185 -495 l0 -137 -50 -6 c-107 -13 -216 -94
-273 -202 -30 -57 -32 -66 -35 -197 l-4 -138 -60 0 c-71 0 -95 -11 -113 -53
-17 -41 -9 -79 21 -108 19 -18 39 -24 88 -27 l64 -4 4 -132 c3 -120 5 -136 31
-188 53 -109 154 -186 273 -210 l54 -11 0 -178 c0 -205 8 -254 60 -364 63
-136 153 -228 285 -293 131 -65 79 -63 1217 -60 l1033 3 65 23 c160 58 284
168 354 315 58 121 66 165 66 376 l0 178 54 11 c119 24 220 101 273 210 26 52
28 68 31 188 l4 132 64 4 c49 3 69 9 88 27 30 29 38 67 21 108 -18 42 -42 53
-113 53 l-60 0 -4 138 c-3 131 -5 140 -35 197 -57 108 -166 189 -273 202 l-50
6 0 137 c0 231 -45 355 -180 491 -81 81 -148 124 -250 160 -59 21 -87 23 -317
27 l-251 4 -12 45 c-6 25 -20 64 -32 86 -27 53 -110 140 -163 172 -50 29 -143
55 -197 55 l-38 0 0 140 c0 151 8 183 52 214 34 24 96 19 153 -12 l50 -27 6
-70 c7 -85 33 -140 91 -189 85 -73 218 -85 320 -29 147 80 183 292 72 421 -53
62 -103 85 -199 90 -73 3 -85 1 -137 -25 l-56 -29 -68 35 c-59 32 -78 36 -148
38 -52 2 -95 -3 -121 -12z m575 -215 c61 -61 10 -162 -75 -146 -62 12 -86 86
-44 140 26 33 88 37 119 6z m-483 -541 c47 -23 97 -76 112 -121 l10 -28 -329
0 -329 0 10 28 c15 44 65 98 111 121 39 19 60 21 207 21 147 0 169 -2 208 -21z
m813 -355 c151 -34 275 -155 314 -309 14 -51 16 -180 16 -985 0 -1001 1 -975
-55 -1078 -52 -95 -137 -165 -244 -202 -59 -20 -81 -20 -1051 -20 -970 0 -992
0 -1051 20 -107 37 -192 107 -244 202 -56 103 -55 77 -55 1078 0 805 2 934 16
985 39 150 155 268 303 307 60 15 153 17 1024 17 836 1 967 -1 1027 -15z
m-2560 -1250 l0 -445 -22 7 c-63 19 -118 66 -137 117 -7 18 -11 141 -11 328 0
274 2 303 19 337 28 55 90 102 134 102 16 0 17 -28 17 -446z m3177 410 c18
-14 42 -43 53 -64 19 -37 20 -59 20 -339 0 -187 -4 -310 -11 -328 -19 -51 -74
-98 -136 -117 l-23 -7 0 447 0 447 32 -7 c17 -3 46 -18 65 -32z"/>
<path d="M2823 2529 c-117 -20 -205 -84 -255 -187 -31 -62 -33 -73 -33 -172 0
-93 3 -112 26 -161 71 -151 226 -229 398 -199 126 22 211 86 265 199 28 60 31
75 31 161 0 83 -4 103 -29 157 -69 150 -232 231 -403 202z m162 -208 c64 -36
96 -123 75 -202 -40 -147 -254 -171 -319 -35 -80 164 87 326 244 237z"/>
<path d="M1394 2450 c-50 -20 -68 -85 -40 -138 8 -15 42 -54 75 -86 l61 -60
-75 -77 c-66 -67 -75 -81 -75 -114 0 -27 8 -44 30 -67 27 -27 36 -30 72 -25
34 5 53 17 112 76 l72 71 44 -46 c61 -63 118 -104 146 -104 61 0 112 61 98
117 -4 15 -39 61 -78 101 l-70 73 67 67 c96 97 107 145 45 197 -52 44 -80 35
-169 -52 l-80 -77 -67 66 c-90 88 -115 100 -168 78z"/>
<path d="M1528 1165 c-86 -57 -162 -113 -168 -124 -19 -37 -12 -81 19 -112 49
-49 80 -42 219 50 l120 79 118 -79 c86 -57 128 -79 151 -79 22 0 65 22 151 79
l120 79 119 -79 c154 -103 152 -103 307 0 l118 79 120 -79 c92 -61 128 -79
155 -79 70 0 119 89 79 146 -8 11 -83 66 -168 122 -113 75 -162 102 -185 102
-22 0 -66 -23 -152 -80 l-121 -80 -121 80 c-87 58 -130 80 -152 80 -23 0 -65
-22 -151 -79 l-118 -79 -120 79 c-86 57 -129 79 -151 79 -24 0 -72 -27 -189
-105z"/>
</g>
</svg>
